<svg id="Layer_1" data-name="Layer 1" xmlns="http://www.w3.org/2000/svg" viewBox="0 0 512 512"><defs><style>.cls-1{fill:#f4536a;}.cls-2{fill:#ee374b;}.cls-3{fill:#f0f7ff;}.cls-4{fill:#e1eaf4;}.cls-5{fill:#6b287c;}</style></defs><title>candy-filled</title><path class="cls-1" d="M436.74,88.9c5.1-2.64,2.52-10.39-3.14-9.48-9.34,1.51-17.66,6.85-29.19.19C386.93,69.52,397,52.05,379.54,42s-27.55,7.39-45-2.69C323,32.62,323.47,22.76,320.11,13.92c-2-5.37-10-3.72-9.78,2l6.19,135.23Z"/><path class="cls-1" d="M201.66,496.07c.26,5.74-7.74,7.38-9.78,2-3.37-8.84-2.9-18.71-14.43-25.37-17.48-10.09-27.56,7.38-45-2.71s-7.38-27.55-24.84-37.64c-11.52-6.65-19.83-1.32-29.16.19-5.67.92-8.24-6.84-3.15-9.48l120.21-62.26Z"/><path class="cls-1" d="M269.83,105.75,360,261.94a366.32,366.32,0,0,1-21,42c-3.86,6.68-7.84,13.18-11.9,19.4L217.54,133.57C233.81,118.91,251.26,109.06,269.83,105.75Z"/><path class="cls-1" d="M177.19,182.08,287,372.19c-16.14,14.85-33.43,25-51.84,28.66L144.06,243.08a364.23,364.23,0,0,1,20.21-40C168.46,195.79,172.74,188.77,177.19,182.08Z"/><path class="cls-2" d="M344.29,294.42c-1.72,3.16-3.48,6.32-5.31,9.49s-3.6,6.12-5.43,9.12l-.94,1.53c-1.83,3-3.67,5.89-5.53,8.75L301.2,278.47c13-22.83,23.38-45.38,29.78-66.79l29,50.26q-2.09,5-4.43,10.08l-.31.66c-3,6.5-6.31,13.05-9.85,19.64ZM218.66,372.3l16.47,28.53.46-.09c1.94-.4,3.87-.87,5.78-1.41l1-.28a90.29,90.29,0,0,0,12.91-4.92l.44-.22q2.89-1.37,5.73-3l1.09-.62q2.7-1.54,5.36-3.25l.7-.45A143.39,143.39,0,0,0,287,372.19L264.23,332.8C250,349.81,234.75,363.44,218.66,372.3Z"/><path class="cls-3" d="M144.06,243.08l91.08,157.76c-19.37,3.9-39.94.59-61.69-12C118.72,357.28,118.54,302.83,144.06,243.08Z"/><path class="cls-3" d="M217.54,133.57,327.08,323.3c-12.42,19.09-25.81,35.82-40.1,48.88L177.19,182.08C189.74,163.06,203.16,146.47,217.54,133.57Z"/><path class="cls-3" d="M329.8,118.07C384,149.34,384.7,202.94,360,261.94L269.83,105.75C288.69,102.43,308.66,105.87,329.8,118.07Z"/><path class="cls-4" d="M323.47,114.72c2.1,1.05,4.21,2.13,6.33,3.35,3,1.75,5.85,3.6,8.55,5.49.55.38,1.1.76,1.64,1.15,2.56,1.86,5,3.78,7.25,5.77.39.34.75.69,1.13,1,2.11,1.91,4.1,3.87,5.94,5.89.22.24.46.47.67.71a81.84,81.84,0,0,1,5.36,6.7l.94,1.33a78.28,78.28,0,0,1,4.42,7.14c.09.17.17.34.26.51a77.83,77.83,0,0,1,3.4,7.32c.14.35.3.7.44,1.05a80.74,80.74,0,0,1,2.6,7.88c.11.39.2.78.3,1.18a91.34,91.34,0,0,1,2.7,17.19c0,.37,0,.73.07,1.1.16,3,.2,6,.1,9.05,0,.17,0,.35,0,.52-.11,3.16-.34,6.35-.7,9.59v.06c-.37,3.25-.87,6.54-1.47,9.87l-.14.76A213.38,213.38,0,0,1,360,261.94l-29-50.26c11.41-38.16,10.21-72.73-11.48-98.83l.62.27C321.24,113.63,322.35,114.17,323.47,114.72ZM183,393.77q2.61,1.21,5.21,2.24c.77.31,1.54.62,2.31.9q3,1.09,5.88,2c.42.12.84.28,1.26.4,2.36.66,4.71,1.2,7,1.65.59.11,1.17.19,1.75.29,1.8.31,3.6.56,5.38.74l2,.18c1.94.15,3.87.23,5.79.23l1.07,0c2.4,0,4.78-.16,7.15-.4h.09c2.32-.25,4.63-.61,6.92-1.06l.33-.07L218.66,372.3c-17.31,9.53-35.63,13.58-54.93,10.26.48.34,1,.67,1.47,1,2.62,1.82,5.32,3.61,8.25,5.3,2.46,1.42,4.9,2.69,7.33,3.87C181.53,393.11,182.26,393.43,183,393.77ZM299.67,281.21c-11.07,19.17-22.91,36.65-35.44,51.58L287,372.19q5.32-4.86,10.48-10.39l.15-.16c3.35-3.59,6.65-7.39,9.89-11.36l.4-.48a309.14,309.14,0,0,0,19.19-26.5L301.2,278.47C300.68,279.39,300.2,280.3,299.67,281.21Z"/><path class="cls-5" d="M449.32,79.49a15.68,15.68,0,0,0-17.42-10.59,77.25,77.25,0,0,0-7.73,1.77c-6.6,1.77-9.72,2.43-14.44-.29S404,64.63,402.26,58c-2-7.61-4.84-18-17.4-25.3s-23-4.44-30.59-2.41c-6.6,1.77-9.71,2.43-14.42-.29s-5.69-5.75-7.46-12.35a77.42,77.42,0,0,0-2.32-7.56,15.71,15.71,0,0,0-30.38,6.29l3.65,79.74a89.71,89.71,0,0,0-35.36-.9h0c-19.71,3.52-39.07,13.74-57.54,30.39l0,0c-14.23,12.77-28.4,29.77-42.1,50.53h0c-4.3,6.47-8.63,13.5-13.24,21.49a377.15,377.15,0,0,0-20.77,41.16l0,0c-29.56,69.19-16.84,111.86,7,138L70.36,413.63a15.71,15.71,0,0,0,9.75,29.45,78.1,78.1,0,0,0,7.7-1.77c6.6-1.78,9.71-2.44,14.43.29s5.69,5.75,7.45,12.35c2,7.61,4.83,18,17.39,25.29s23,4.45,30.6,2.41c6.6-1.77,9.72-2.42,14.43.29s5.7,5.76,7.47,12.36a76,76,0,0,0,2.33,7.58A15.63,15.63,0,0,0,196.56,512a16.09,16.09,0,0,0,3.24-.33,15.63,15.63,0,0,0,12.5-16.09l-3.81-83.28a89.39,89.39,0,0,0,11.29.73,88.46,88.46,0,0,0,17.47-1.75h0c19.38-3.85,38.5-14.34,56.83-31.19l0,0c14.24-13,28.31-30.14,41.83-50.91v0c4.15-6.37,8.26-13.06,12.2-19.89a377.77,377.77,0,0,0,21.62-43.16v0C396,203.58,387.38,163,367.52,136.75l74.12-38.39h0A15.63,15.63,0,0,0,449.32,79.49ZM324.47,127.3C363,149.54,374,185.52,357.87,236.95L287.65,115.32C299.71,116,311.87,120,324.47,127.3ZM189.74,468.67a36,36,0,0,0-7-5.19,33,33,0,0,0-16.84-4.69,51.85,51.85,0,0,0-13.76,2.28c-6.6,1.77-9.72,2.43-14.44-.29S132,455,130.28,448.43c-2-7.61-4.83-18-17.39-25.29a35.94,35.94,0,0,0-8-3.44L158.52,392q2.39,1.69,4.82,3.23l-9.87,17.09a10.65,10.65,0,1,0,18.45,10.65L182.2,405.1q2.36,1,4.72,1.86Zm-11-89c-39.07-22.55-49.86-59.24-32.72-111.8l71.52,123.87C204.9,391.33,192.08,387.33,178.78,379.65Zm151-81.07q-1.16,2-2.34,4L262.89,190.85a10.65,10.65,0,0,0-18.45,10.65l70.12,121.41a259,259,0,0,1-25.25,32l-17.09-29.62a10.65,10.65,0,0,0-18.45,10.65l19.6,34c-11,9-22,15.22-33,18.64L156,242.41a369.09,369.09,0,0,1,17.53-34c1.12-1.95,2.23-3.82,3.32-5.65l59.34,102.74a10.65,10.65,0,0,0,18.45-10.65L189.77,182.57h0l0-.06a256.78,256.78,0,0,1,25.42-31.77l11.77,20.39a10.65,10.65,0,1,0,18.45-10.65l-8.84-15.3h0l-5.33-9.23c11-8.79,22.19-14.83,33.34-18l83.58,144.75A368.07,368.07,0,0,1,329.76,298.58Zm22.42-177.87q-1.95-1.64-3.95-3.16l10.3-17.84a10.65,10.65,0,1,0-18.45-10.65l-9.87,17.09c-1.73-.91-3.47-1.75-5.21-2.56l-2.76-60.29a36,36,0,0,0,7,5.18c12.55,7.25,23,4.45,30.59,2.41,6.59-1.76,9.71-2.44,14.42.29s5.7,5.76,7.47,12.36c2,7.61,4.84,18,17.4,25.3a36.06,36.06,0,0,0,8,3.44Z"/><path class="cls-5" d="M139.05,108.71a10.65,10.65,0,0,0,15.06,0l8.45-8.45,8.45,8.45a10.65,10.65,0,0,0,15.06-15.06l-8.45-8.45,8.45-8.45A10.65,10.65,0,0,0,171,61.7l-8.45,8.45-8.45-8.45a10.65,10.65,0,1,0-15.06,15.06l8.45,8.45-8.45,8.45A10.65,10.65,0,0,0,139.05,108.71Z"/><circle class="cls-5" cx="109.31" cy="159.76" r="10.65"/><path class="cls-5" d="M425.7,370.57a10.65,10.65,0,0,0-15.06,0L402.2,379l-8.45-8.45a10.65,10.65,0,0,0-15.06,15.06l8.45,8.45-8.45,8.45a10.65,10.65,0,1,0,15.06,15.06l8.45-8.45,8.45,8.45a10.65,10.65,0,1,0,15.06-15.06l-8.45-8.45,8.45-8.45A10.65,10.65,0,0,0,425.7,370.57Z"/><circle class="cls-5" cx="402.2" cy="314.19" r="10.65"/></svg>