<svg id="Layer_1" data-name="Layer 1" xmlns="http://www.w3.org/2000/svg" viewBox="0 0 512 512"><defs><style>.cls-1{fill:#707070;}</style></defs><title>atom-handdrawn</title><path class="cls-1" d="M320.56,243.58c-.38-1.61-.89-3.68-1.46-5.56l-1.62-4.54c-3-8.77-9.8-18.3-18.24-24.78a56.92,56.92,0,0,0-18.88-9.79c.49-.21,2.72.18,2.48-.24s-2.91-2.22-13-3.76l2.08-.5a66,66,0,0,0-19.82-.33,51.24,51.24,0,0,0-19.2,6.21,33.3,33.3,0,0,0-5.2,3.88l.62-.17a73.28,73.28,0,0,0-13.79,11.71,55.56,55.56,0,0,0-14.85,35.74,70.24,70.24,0,0,0,0,7.53,61.7,61.7,0,0,0,41.07,55.68A65.54,65.54,0,0,0,269,318.27a60,60,0,0,0,37.22-17.55l2.82-3c6-6.34,6.69-9.16,9.13-14a8.34,8.34,0,0,0,1-3.51c0-.49-.9,1-.69.15.46-2.1,2-8.13,1.2-6.83-.94,1.68-.1-2.09.38-5.27a63,63,0,0,1-3.13,9.24c1.65-4.74,1.42-5.83,1.49-7.1s.26-2.79.91-8.73l-.71,3.95a60.54,60.54,0,0,0-1.22-9.57A54,54,0,0,1,314,274.9c-.26-.1-.05-1.64-.89,0-2,4.38-6.35,12.65-11,17.57a37.7,37.7,0,0,1-9.26,7.79c-2.4,1.25-5.12,2.91-9,4.68a61.11,61.11,0,0,1-6.16,2.2l-.05-.13a53.2,53.2,0,0,0,17.19-9.14,56.43,56.43,0,0,1-10.49,6.24,52.31,52.31,0,0,1-28.4,4.35c-7.67-.82-16.36-5.46-12-4.31A57.94,57.94,0,0,0,256,306c.54.1,2.59.25,4,.31l-.53.3a49.47,49.47,0,0,0,8.84-.58c-3.17.19-4.94.08-5.33.12-.18-.24-.52-.41-.38-.6.37-.53-1.62-1,4.49-1.7,2.47-.47,6.32-1.3,6.85-1.76.75-.51,2-.66,4.77-1.78a29.33,29.33,0,0,0,6.75-3.44c1-.82-.14-.48-.41-.7l1.83-1.25a34,34,0,0,1-4.86,2.63,28.76,28.76,0,0,1-4.09,1.68l-.61.61A52.74,52.74,0,0,1,251.43,301a16.57,16.57,0,0,0,1.94.21,50.41,50.41,0,0,1-5.84-1.69,9.46,9.46,0,0,0-1.86-1.49c-.6-.24-2.94-1.63-4-2.07a43,43,0,0,1-17.86-17c-1.16-1.69-2-3.83-2.83-5.35a44.76,44.76,0,0,1-2.79-28.12,46.81,46.81,0,0,1,19.57-28.57c3.48-2.62,9.39-4.76,8.1-4.92-.68,0,.73-.94,6.31-2.15,1.36-.29,2.87-.47,4.31-.71a47.3,47.3,0,0,1,31.59,7.37c1.38.88,2.54,2,3.81,3l-.61-.34a47.44,47.44,0,0,1,17.07,27c.23-1.24,1.25,1.62,1.69,6.22a22.87,22.87,0,0,1,1.77,3.17c.4.94.61.46.65-1.53a35.61,35.61,0,0,0-1.4-10.39,50.77,50.77,0,0,0-8.26-17.18,46.46,46.46,0,0,0-8.36-8.82,52,52,0,0,0-29.41-10.87,43.5,43.5,0,0,0-7.28.23,49.11,49.11,0,0,0-10.92,2.63c.36-.53,0-.65-1.4-.28a31.87,31.87,0,0,0-7.36,3.11,51,51,0,0,0-9.71,7.18,49.71,49.71,0,0,0-16,34.85c0,.09-.07.12-.12.2l0-2c.8-16.58,10.73-32.29,25.22-40.46,1.08-.7,2.41-1,3.63-1.67a51.64,51.64,0,0,1,11.39-3.72c-.38-.12-.19-.42-1.26-.31-1.4.14-3,.28-4.58.52l-4.95,1.12c5.85-2.69,5.92-2.5,10.27-3.1.64,0,2.28-.24,3.55-.41a73.2,73.2,0,0,1,12-.37c4.13.34,7.79,1,9.34,1.28a15.24,15.24,0,0,1,3.53.87,51.89,51.89,0,0,1,16,9.32c8.52,7.32,12.78,15,12,11.94-.69-2.08,4.13,3.24,6.19,9a76.41,76.41,0,0,1,3.24,11.07A12.44,12.44,0,0,0,319,251c.19.26.34-1.22.54.06.73,5.65,1.36,2.53.84-3.71a34.43,34.43,0,0,1,1,5.18A51.82,51.82,0,0,0,320.56,243.58Zm-41.29,68.73A59.11,59.11,0,0,0,306,295.67l-.3.63a45.62,45.62,0,0,1-3.79,3.61,63.49,63.49,0,0,1-6.8,5.45A56.78,56.78,0,0,1,282,311.93a17.59,17.59,0,0,1-4.22.93Zm-63-37.94a56.81,56.81,0,0,0,3.18,6.78,53.86,53.86,0,0,1-2.81-5.1l0,.18a49.48,49.48,0,0,0,3.76,6.85,40.34,40.34,0,0,1-7.2-17.5A58.78,58.78,0,0,0,216.25,274.37Zm15.65,4.13c-5.1-6.62-5.63-14.67-4.24-11.76a15.36,15.36,0,0,1,.8,1.66,35.72,35.72,0,0,0,7.75,11.48,23.39,23.39,0,0,0,2.88,3.64,28.39,28.39,0,0,0,3.83,2.83c.08-.13.65,0,.14-.45-1.65-1.56-1.07-1.27,2.89,1a41.8,41.8,0,0,0,17.17,4.14c1.11,0,2.41.17,2.2.3a20.24,20.24,0,0,1-4.86,2.21c-.83.31-2.88.31-6.54-.5A38.38,38.38,0,0,1,231.91,278.5Zm-3.68-43.95c-.5,1.33-1.37,3.09-2.85,6.24-1.87,3.71-2.53,9.71-3.36,10.69-.38.47-1,4.66-1.1,7-.07.75-.21,1.18-.35.83-.28-.73-.59-2.08-.77-2.72a43,43,0,0,1,5.32-22.13,35.6,35.6,0,0,1,9.38-11.56,53.37,53.37,0,0,1,11.1-6.81L249,216c1.1-.1,2.44,0,3.78,0-5.5,1.26-11.74,4.44-17.29,8.58a26.43,26.43,0,0,0-4.23,4.34A22.15,22.15,0,0,0,228.22,234.55Zm62.15,45.55a7.44,7.44,0,0,0,.48-1.27,6.68,6.68,0,0,1-.74,1,36.14,36.14,0,0,1-17.7,9.52A4.36,4.36,0,0,0,273,289a47.34,47.34,0,0,0,5.75-2.44c6.91-3.67,12.35-10.07,15.75-16.8,2.84-6.45,4.08-9.16,3.29-3.12a31.36,31.36,0,0,1-1.17,3.84A39.18,39.18,0,0,1,290.37,280.1ZM505.51,156.45a82.56,82.56,0,0,0-3.38-20.4,72.91,72.91,0,0,0-8.8-18.57c-7.27-11.27-16.89-18.78-24.26-23.44A101,101,0,0,0,453,86.21c-.16-.45-.3-.84-.39-1.13-1.58-5.3-5.7-11-10.72-14.86a33.29,33.29,0,0,0-11.3-5.77c.33-.26,1.73-.18,1.62-.56s-1.69-1.55-7.83-2.52l1.31-.62a42.56,42.56,0,0,0-12.14-.36,28.39,28.39,0,0,0-11.83,3.76,14.12,14.12,0,0,0-3.05,2.61l.42,0a47.5,47.5,0,0,0-8.51,7.05A31.69,31.69,0,0,0,387.83,77c-2.21.16-4.35.34-6.89.61l2,.06C375,78,366.45,78.86,358.11,80a211.57,211.57,0,0,0-13.52-23.5A155.23,155.23,0,0,0,321,28.33c1.39.59,6.81,5.8,6.19,4.64A51.9,51.9,0,0,0,320,25.39C314.71,20.83,306.32,12.8,289.28,6a63.82,63.82,0,0,1,6.82,2,83.64,83.64,0,0,0-18.68-6.46A77.65,77.65,0,0,0,257.91.16a80.48,80.48,0,0,0-31.16,8.19C205.12,18.8,189.57,36.61,178,53.87a156.61,156.61,0,0,0-10,18l1.07-1.63C167.61,73,166.08,76,164.56,79a262,262,0,0,0-39.88-2.54,174.39,174.39,0,0,0-37.9,4.64c-1.4.35-2.78.82-4.17,1.29,20-5.19,39.87-5.85,59.19-4.57,7.45.51,14.8,1.41,22.1,2.5-2.74,5.56-5.37,11.31-7.72,16.93-4.1-.5-7.66-.88-10.54-1.19a168.22,168.22,0,0,0-36.12.09,130.48,130.48,0,0,0-22.63,4.25l-.09-.13c22.2-6.41,46.2-6.53,69.54-4a218.65,218.65,0,0,0-44.09-1C95,97,77.51,101.13,63.2,110.37A56.92,56.92,0,0,0,37,151a70.21,70.21,0,0,0-.54,7c-.76.12-1.51.27-2.26.45a62.81,62.81,0,0,1,.31-7.24c.22-2,1.53-9.76,3.66-14.45l-.38,1.92c3.83-10.54,8.87-18.47,18.91-26.74-9.45,7.48-12.81,13.52-13.68,14.69-.57.41-1.45,1.43-1.31.89.21-.78-.92.46-.45-.72.63-1,1.85-5.44,11-14.18a75.53,75.53,0,0,1,14.19-10,111.26,111.26,0,0,1,10.54-5c3.24-1.45,8.18-3.49,20.27-5.89,11.27-2.3,27.33-3,31.47-3.06,5.23-.15.51-.54-.06-.81-2.33.06,1.14-.1,9.46,0-18.37-.58-30.68.57-42.65,2.82l-3.18,1.1c-18.93,4.16-35.88,12-47.78,26-9.49,11.06-14.54,25.87-14.64,42.1a26.66,26.66,0,0,0-3.14,1.56,13.81,13.81,0,0,0-3,2.58l.42,0a27.54,27.54,0,0,0-2.29,1.55,84.29,84.29,0,0,1,1.07-20.45,88.33,88.33,0,0,1,3.34-12.8,74.26,74.26,0,0,1,15.51-27.06c1-1.13-5.5,4.63-9.84,10.88a71.68,71.68,0,0,0-11.74,26.6,85.69,85.69,0,0,0-1.39,25.34c-1.21,1.08-2.31,2.12-3.07,2.91a31.84,31.84,0,0,0-6.38,9.37,32.54,32.54,0,0,0-2.72,12.26c0,1.25-.11,3,0,4.56a37.14,37.14,0,0,0,25,33.7,39.77,39.77,0,0,0,10.25,2.17c4,6.65,6.72,10.47,7.83,12.06,1.54,2.14.35.09-3.06-5.4-2-3.35-.12-.75,0-.87,3.41,5.34,7.92,11.68,11.48,16.51-2,2.61-3.91,5.22-5.8,7.89-10.48,15.18-19.78,31.53-26.26,49.8-5.33,15.38-8.85,33-6.16,51.22a74.14,74.14,0,0,0,8.72,25.9,76,76,0,0,0,16.81,20.17,95.66,95.66,0,0,0,33.3,17.92,154.33,154.33,0,0,0,34.87,6.51A237.25,237.25,0,0,0,164,432.9c.21.42.39.85.6,1.27,8.11,15.85,17.84,31.2,30.58,44.92,10.79,11.44,24.34,22.3,40.9,28.19A77.7,77.7,0,0,0,261.72,512a80.28,80.28,0,0,0,24.72-3.89,97.48,97.48,0,0,0,31.63-17.93,131,131,0,0,0,14.74-14.67,39.93,39.93,0,0,0,6.22,0,35.18,35.18,0,0,0,22.59-10.61l1.72-1.8c3.82-3.73,4-5.61,5.43-8.57a3.37,3.37,0,0,0,.36-2.22c-.05-.32-.68.53-.62,0,.13-1.32.88-5,.24-4.23-.74.93-.31-1.31-.15-3.19a36.21,36.21,0,0,1-1.95,5.34c.89-2.78.64-3.44.56-4.2a24.19,24.19,0,0,1,.24-5l-.46,2.24a31.84,31.84,0,0,0-1.6-5.44,29.88,29.88,0,0,1-1.87,10.43c-.26-.1-.29-1-.84-.14-1.36,2.29-3.57,6.8-6.11,9.51a16.43,16.43,0,0,1-5.09,4.13c-1.37.57-2.84,1.44-5,2.4a29.22,29.22,0,0,1-3.33,1.16l0-.14a28.48,28.48,0,0,0,9.16-5,33.56,33.56,0,0,1-5.63,3.29,27.59,27.59,0,0,1-15.15,2.3c-4.11-.47-8.58-3.23-6.19-2.86a34.48,34.48,0,0,0,6.4.45l2,.16-.28.31a25.38,25.38,0,0,0,4.52-.46c-1.63,0-2.52-.06-2.72-.05-.09-.25-.26-.42-.2-.61.17-.52-.78-1,2.18-1.58a12,12,0,0,0,3.27-1.11c.33-.39.93-.45,2.24-1a10.38,10.38,0,0,0,3.15-1.78c.41-.48-.2-.45-.4-.7l.82-.64a18.94,18.94,0,0,1-4.17,2l-.22.47a28.81,28.81,0,0,1-12.06.47,7.57,7.57,0,0,0,.93,0,23.42,23.42,0,0,1-2.69-.85,3.47,3.47,0,0,0-.71-1.07,13.69,13.69,0,0,0-1.74-1.06,18.47,18.47,0,0,1-8-7.7c-.53-.75-.87-1.73-1.29-2.39a19.76,19.76,0,0,1-1.51-12.7,22.06,22.06,0,0,1,8.66-13.41c1.57-1.29,4.33-2.33,3.61-2.71-.39-.16.29-.62,3-1.15l2.06-.34a22.56,22.56,0,0,1,15.1,3.53,17.27,17.27,0,0,1,1.76,1.51l-.32-.12A22.59,22.59,0,0,1,357,433.1c.37-.66,1,.69,1.23,2.94a9.89,9.89,0,0,1,1.69,1.53c.59,1,1.29-1.07,0-6.09a26.26,26.26,0,0,0-4.29-8.73,21.75,21.75,0,0,0-4.3-4.44,27.57,27.57,0,0,0-15-5.16,19.34,19.34,0,0,0-3.64.19,24,24,0,0,0-5.39,1.48c.29-.79-1-.9-4.56,1a26.28,26.28,0,0,0-4.88,3.65A25.13,25.13,0,0,0,309.77,437s-.07.06-.11.1v-1a25.48,25.48,0,0,1,12.73-20.62,20,20,0,0,1,1.88-.78,26.78,26.78,0,0,1,5.78-1.89c-.21-.15-.14-.4-.7-.43a23.8,23.8,0,0,0-5.15.25c3-1.6,3.08-1.51,5.41-1.6a17.09,17.09,0,0,0,1.87-.16,48.46,48.46,0,0,1,11.26.13,5.74,5.74,0,0,1,1.92.33,27.09,27.09,0,0,1,8.57,5c4.51,3.89,7.08,7.84,7,6-.19-1.27,2.88,1.42,4.07,4.69,2.14,6.13,2.28,7.63,2.9,8,.19.14.36-.71.53,0,.66,3.21,1.19,1.45,1-2.2a21.58,21.58,0,0,1,.75,3,27.62,27.62,0,0,0-.33-5.28,22.61,22.61,0,0,0-.76-2.89c29.85,3.51,60.58,1.56,84.57-8.4a117.88,117.88,0,0,1-17.56,4.55,139.15,139.15,0,0,1-15.5,1.77c-15.69,2.18-35,2-52.19,0l-.34-1c-.2-.69-.56-1.38-.84-2.08,7,.75,13.89,1.32,20.78,1.54A191,191,0,0,0,416,422.82c8.29-1,13.56-2.42,11.12-2.21-1.33,0-.29-.07,3.91-1.09a114.44,114.44,0,0,0,22.66-7.34,75.77,75.77,0,0,0,15.72-9.43,66.76,66.76,0,0,0,12.23-12.44c3.27-4.81,6.35-9.86,8.16-15.44,4.1-11,4.5-23,3.16-34.4-3.17-23-13.56-44.14-25.89-63.29-3-4.6-6.07-9.06-9.26-13.44,2.58-3.19,5.12-6.41,7.56-9.68,13.53-18.49,26.06-39,33.54-64.86-.07,1.47-2,9.06-1.34,7.9a65.73,65.73,0,0,0,3.45-10.32,96.53,96.53,0,0,0,3-37.61C504.8,151.91,505.06,154.14,505.51,156.45Zm-160.67,314a34.36,34.36,0,0,0,15.62-9.56l-.11.42c-.7.75-1.49,1.4-2.24,2.08a37.62,37.62,0,0,1-4,3.2,32.05,32.05,0,0,1-7.65,3.85,8.44,8.44,0,0,1-2.51.4Zm53.47-358.1a17.14,17.14,0,0,1-3.75-9,33.27,33.27,0,0,0,1.75,4.45,37.51,37.51,0,0,0,1.57,3.5,27.6,27.6,0,0,1-1.51-2.58v.1A25.41,25.41,0,0,0,398.31,112.38Zm8.3,22a41.35,41.35,0,0,0,17.31,2.26,35.62,35.62,0,0,0,22.85-10.73l1.74-1.82c3.86-3.77,4-5.68,5.5-8.67a3.43,3.43,0,0,0,.37-2.24c-.05-.33-.68.53-.62,0,.14-1.34.9-5,.25-4.27-.74.95-.31-1.32-.14-3.23a36.68,36.68,0,0,1-2,5.41c.91-2.81.65-3.48.58-4.25a19.53,19.53,0,0,1,.14-3.87,75,75,0,0,1,14.83,8.91A63.51,63.51,0,0,1,479,123.67c3.09,4.56,6,9.32,7.71,14.61,3.89,10.4,4.29,21.84,3,32.88-3,22.25-13.22,43-25.4,61.91-3.67,5.61-7.56,10.91-11.65,16.13l1.67-2.3c-1.56,2.06-3.22,4-4.83,6.07a399.07,399.07,0,0,0-59.2-57.87c-.68-5.27-1.33-10-1.72-12.82a355.94,355.94,0,0,0-21.56-82.17c4.77-.51,9.53-.93,14.28-1.19,0,.46,0,.93,0,1.38a37.57,37.57,0,0,0,25.23,34.09ZM428.94,132l.86-.39a34.8,34.8,0,0,0,15.81-9.69l-.12.43c-.7.76-1.5,1.42-2.27,2.1a38,38,0,0,1-4,3.24,32.47,32.47,0,0,1-7.75,3.9A8.64,8.64,0,0,1,428.94,132ZM451.3,260l.13.17c-.6.74-1.21,1.5-1.81,2.23-.42-.54-.82-1.09-1.25-1.63l-.48-.59c.6-.73,1.21-1.47,1.78-2.19C450.23,258.7,450.79,259.39,451.3,260Zm25.55,71.35a78.39,78.39,0,0,1,2,28.15c0-1.93-.28-3.56-.36-5.14-.45,9.36-3.22,18.23-8,25a48.46,48.46,0,0,1-16,14.83c-14.94,8.66-34.57,12.25-53.23,13-4.72.16-7.89.29-10.65.31s-5.08.18-8.14.07l1.8.3c-4-.18-8.17-.56-12.42-1,.06-.17.14-.33.2-.49l4.27-12c8.64-25.66,9.32-33.78,12.62-50.46a69.25,69.25,0,0,0,1.29-11.08c.06-1.46-1,3.8-.77,1.17.17-1.32.38-3.2.6-5.29l1.78-1.36a397.35,397.35,0,0,0,57.37-53.4c11.75,16.34,22.42,34.2,28.48,54.81-.71-1.07-3-7.19-3-6C474.68,323.29,475.5,325.66,476.85,331.38ZM368.12,406.44q2.27-5.85,4.32-11.77l-.53,2.12c-1.14,3.25-2.43,6.45-3.68,9.66Zm-22-3.56c-.25-.12-.55-.24-.91-.38,2.74-6.48,5.29-13.07,7.55-19.78.59-2,1.26-4,1.78-6-.32,1.64-.76,3.23-1.45,6.11A337.66,337.66,0,0,0,362.15,349l1.34-.88c5.48-3.62,12.57-8.82,18.58-13.32-3.23,17.4-8.52,41.35-14.8,59.24-1.45,4.24-2.88,8.1-4.3,11.76C357.11,404.93,351.39,403.93,346.11,402.88Zm-39.58,10.06c-4.42-1.29-8.87-2.63-13.49-4.09q-11.66-3.8-23.36-8.31L273,399c11.78,4.48,23.71,8.48,35.7,11.92C307.88,411.63,307.14,412.33,306.53,412.94ZM190.38,424.8l-.57.1-.12-.23.79-.16s0,.14.08.23Zm1.63,3.08c.31.65.66,1.35,1.07,2.16,1.55,2.92,0,.67-.08.77-.5-.9-1-1.84-1.55-2.82Zm-11.47-1.37c2.47-.45,4.92-1,7.37-1.48l.1.2c-2.47.48-5,.9-7.43,1.35ZM206.08,44c-1,.78-.38,0,2.44-2.91a95.34,95.34,0,0,1,17.09-14.14,73.24,73.24,0,0,1,15.05-7.63,65.3,65.3,0,0,1,15.48-3.7,62.35,62.35,0,0,1,15.88.56c10.55,1.58,20.43,6.31,29.22,12.37,17.68,12.35,30.73,30.37,41.2,49.2.79,1.46,1.49,2.93,2.24,4.4-7.9,1.38-15,2.86-20.28,4.08a404.43,404.43,0,0,0-57.28,17.65c-1.75.68-3.5,1.44-5.25,2.15-1.5-.63-3-1.25-4.59-1.89a412.41,412.41,0,0,0-63.88-20c-2.32-.51-4.68-.91-7-1.39,11.18-20.55,25-38.57,40.1-49-2.37,1.32-4.48,3-6.62,4.4l-5.7,4.5L209,47.14l-4.84,4.73c-7,8.36-13.94,19.26-19.89,30.4l-2.8-.55c1.18-2.29,2.27-4.65,3.51-6.89A174.45,174.45,0,0,1,199.7,52.39C204.45,46.26,207.88,42.55,206.08,44Zm175.28,51.7c0,.33,0,.76,0,1.14-5.12.31-10.14.78-15,1.36-.35-.86-.75-1.7-1.11-2.55,5.47-.71,10.92-1.23,16.35-1.61C381.52,94.55,381.36,95.14,381.36,95.67Zm-3.91,57.23c-1.16-7.18,5.69,16,8.39,36.45.12.82.21,1.55.32,2.34-2.09-1.63-4.23-3.2-6.35-4.81a412.46,412.46,0,0,0-9.93-47.56,325.27,325.27,0,0,0-13-38c1.11-.17,2.05-.3,2.79-.39a398.33,398.33,0,0,1,14.2,41.55C377,153.3,378.17,158.11,377.45,152.9Zm9.34,43.5c.35,2.69.65,5.17.92,7.54-2-1.6-4.13-3.23-6.24-4.86-.31-2.53-.57-5.06-.93-7.6C382.64,193.09,384.71,194.74,386.79,196.4ZM277.06,395.49l-.45.19-.62-.23.45-.21Zm-5.5-1.75q-11.6-4.58-23-9.77l.2-.07.24-.1q11.41,5.14,23.06,9.7Zm-29-7.53c7.39,3.37,14.89,6.54,22.44,9.56-.48.15-1.12.37-2.17.76l-1.62.63q-11-4.49-22.15-9.66ZM265.47,396l.46.18-1.79.76C264.1,396.79,264.92,396.32,265.47,396Zm-19.76-13.29q-19.55-9-38.32-19.59a4.19,4.19,0,0,1-.62-.47l6.84,3.77c10.65,5.77,21.55,11.08,32.57,16.12Zm-6.1,2.2c-1.16.42-2.32.85-3.49,1.26-13.2-6.24-26.48-13.15-39.87-20.87l-11.35-6.06c-1.45-.79.07.42,3.06,2.32,9.15,6.06,26.85,16,29,17.44,1.82,1.39,7.87,4.62,15.67,8.43a420.23,420.23,0,0,1-45.34,12.92c-2.56.57-5.15,1-7.73,1.52-1.92-5.21-3.3-9.57-4.63-13.69A366.89,366.89,0,0,1,162,340.44,541.38,541.38,0,0,0,239.6,384.87Zm-78.91-51.19c0-.12,0-.25-.06-.37,3.82,2.76,7.2,5.14,9.83,7C167.15,338.08,163.92,335.89,160.69,333.68Zm-1.88-1.3q-4.16-2.87-8.36-5.92c0-.24-.07-.49-.11-.74,3,2.22,5.8,4.32,8.4,6.21Zm-8.06,22.27c-1.41-6.26-2.29-10.49-2.92-13.71l.23.13C148.75,344.88,149.62,349.36,150.75,354.66ZM145,322.45l-.66-.5c0-.28-.07-.55-.11-.83l.65.5Zm-17.67-57.37c.16,8.94.59,17.9,1.23,26.84q-11.1-9.81-21.44-20.31c-5.06-5.2-9.92-10.58-14.66-16.05,2.12-2.31,4.13-4.43,6.05-6.47a398.91,398.91,0,0,1,29.9-29.65c-.53,7.74-.92,15.35-1.05,22.51C127.3,248.26,127.18,257.32,127.35,265.08ZM130.17,310c0,.1,0,.2,0,.3-5.76-4.77-11.54-9.88-18-15.75C118.09,299.92,124.19,305.1,130.17,310Zm0,.43c0,.09,0,.18,0,.27-3.29-2.78-7.19-6.15-11.9-10.36C123.9,305.17,127.48,308.18,130.21,310.41Zm11.94-7c-.41-4.43-.68-8.29-.81-11.31.37,3.92.78,7.77,1.21,11.63Zm-2-53.13a3.91,3.91,0,0,1-.12.75c0-2.45,0-4.94,0-7.54.31-12,1.18-24.08,2.39-36.08l.26-.21C141.25,221.51,140.37,235.9,140.14,250.26Zm2.53-45.14c.36-3.42.68-6.84,1.12-10.25l.29-.23c-.44,3.41-.76,6.83-1.12,10.25Zm-12.45-5.47c-3.5,2.86-7.72,6.39-12.88,10.91,6.3-5.64,10.09-8.89,12.92-11.25C130.24,199.42,130.23,199.54,130.21,199.65Zm18.93-9c1-.74,1.92-1.49,2.9-2.22q-.75,5.27-1.39,10.63l-2.78,2.07C148.27,197.64,148.68,194.15,149.15,190.67Zm1-6.74.1-.69,2.88-2.11c0,.21-.07.42-.11.63Zm6.21-20.49-3,2.11a348.11,348.11,0,0,1,16.24-57.46l2.63.41c-7.44,18.75-11.19,33.59-15.09,51.12C156.85,160.88,156.61,162.17,156.36,163.44Zm.17,15.24c5-3.57,9.44-6.57,12.77-8.66-4.37,3.06-8.61,6.1-12.86,9.22Zm3.33-17.7c.56-2.84,1-5.26,1.38-7.34a272.33,272.33,0,0,1,6.87-27.76c.8-3,3.56-10.82,6-17.1.9.15,1.79.26,2.69.42,3.62.71,9.81,1.91,12,2.53,18.61,4.83,27.61,7.27,37.38,10.38-6.47,3.23-12.78,6.5-18.65,9.76-5.71,3.22-13.91,7.8-20.82,12Q173.06,152,159.86,161Zm97.44-54.48,1.7.68c-7.37,3-14.71,6.2-21.86,9.56-15.37-5.49-33.8-11-48.93-14.09-3.75-.81-7.25-1.49-10.63-2.11,2.45-5.55,5.15-11,8-16.31q6.46,1.41,12.86,3c2.28.48,4.56,1,6.81,1.59-1.81-.36-3.62-.72-6.88-1.25A448.67,448.67,0,0,1,257.3,106.51Zm-69.2,1.36-2.12-.28c-3.51-.74-7-1.45-10.55-2.12l.08-.2Q181.83,106.43,188.11,107.86Zm24.41,35.78c10.22-5.57,20.68-10.71,31.24-15.62l.29.09q-19.17,8.87-37.61,19.13a4.19,4.19,0,0,1-.73.29ZM254,123.3q11-4.81,22.18-9.07l.37.16c-7.47,2.82-14.84,5.89-22.15,9.08Zm96-29.85c.07.15.13.31.2.46a404.86,404.86,0,0,0-71.28,19.65l-.48-.23q11.28-4.23,22.77-7.88A376.14,376.14,0,0,1,350,93.45Zm-95.63,35,3.27,1.31-.08,0-3.2-1.34Zm5.06-1.84c.1-.24,4.32,1.17.47-.65,7.45-3.22,15-6.2,22.57-9l3.36,1.43q-11.81,4.33-23.68,9.41Zm24.93-10.37a389.45,389.45,0,0,1,67.45-18.52c.34.79.68,1.58,1,2.38-21.87,3.6-37.59,8.31-56,14.38-3.13,1.06-6.27,2.19-9.41,3.33Zm70.76-19,2.83-.44c.35.8.66,1.59,1,2.38l-2.8.43C355.76,98.75,355.42,98,355.07,97.18Zm26.94-7c-6.16.37-12.29,1-18.4,1.77l-.25-.57c6.21-.79,12.45-1.34,18.7-1.7C382,89.87,382,90,382,90.2ZM356.25,93c-1,.15-2,.27-2.93.42l-.26-.55c1-.16,2-.28,2.95-.43Zm-6,.86h0l-.23-.45h.06ZM183.44,83.79c-2.67,5.09-5.14,10.2-7.26,15.13-.19.44-.35.84-.53,1.27L173,99.74q3.56-8.44,7.62-16.49C181.58,83.44,182.51,83.59,183.44,83.79ZM173.65,105l-.07.17c-.88-.16-1.77-.33-2.65-.48l.05-.13C171.87,104.68,172.76,104.8,173.65,105Zm-6.66-.91-.51-.07.07-.18.5.08Zm-1.31,3.43a360.47,360.47,0,0,0-17.41,61.62l-.39.28c1.13-6,2.28-11.94,3.68-17.86a349.24,349.24,0,0,1,13.53-44.13ZM145.23,187l-.12.78-.3.23.12-.79Zm-15,12.19c-6.2,5.11-12.36,10.56-19.34,16.91,6.33-6.05,12.91-11.81,19.37-17.19Zm-10.73,16c3.17-2.88,6.6-5.84,10-8.67-.33,3.39-.61,6.73-.86,10.07-6,5.1-12.18,10.7-18.22,16.67-6.69,6.65-13.13,13.57-19.31,20.67-1.56-1.82-3.16-3.61-4.67-5.47A401.16,401.16,0,0,1,119.53,215.19ZM76.2,264.05c1.1,1.33,2.26,2.6,3.38,3.91q-2.2,2.85-4.31,5.75c-1.6-1.83-3.26-3.6-4.82-5.47,1.46-2,2.91-4,4.41-5.9C75.32,262.9,75.74,263.5,76.2,264.05Zm4.55,5.26A382.13,382.13,0,0,0,114,303c5.52,5,11.73,10.23,17.14,14.6.45,3.55.92,7.09,1.45,10.63-10.35-8.49-24.36-20.42-37.76-33.65-6.31-6.27-12.41-12.82-18.34-19.53C78,272.89,79.51,270.92,80.75,269.31Zm64.63,59.29.68.52c.47,2.91,1,6.67,1.94,11.62l-.25-.23c-.59-3.07-1-5.23-1.33-7.35l.07.68c.36,2.19.75,4.38,1.16,6.58l-.23-.19C146.66,336.27,146,332.38,145.38,328.6Zm2.35,12.28c1.28,6.83,2.82,13.86,4.71,21.75-1.92-7.3-3.54-14.69-4.92-21.88Zm8.13,14c-1.7-7.22-3.16-15.2-4.34-21.88,2.77,2,5.54,4,8.38,6a320.2,320.2,0,0,0,17.63,63.21c-2.37.45-4.73.93-7.11,1.33A343.33,343.33,0,0,1,155.86,354.93Zm22.38,49c2.25,5.6,4.72,11.08,7.33,16.47q-3.77.77-7.27,1.41c-2.63-5.52-5.08-11.1-7.29-16.74C173.43,404.68,175.84,404.32,178.24,403.9Zm12.45,20.8-.14-.2c.66-.14,1.33-.25,2-.4Zm-.29-5.33c-1.06.23-2,.43-3.08.64-2-4.11-3.81-7.94-4.67-10.22s-1.74-4.28-2.47-6.22q6.32-1.15,12.62-2.53c2.12-.51,4.24-1.06,6.34-1.67-1.64.56-3.29,1.12-6.25,2a393,393,0,0,0,42.66-12.57c6.71,3.23,14.39,6.73,21.71,9.86C240,405.2,212.09,414.83,190.4,419.36Zm72.82-18.19.08,0-2.19.87Zm3.85-1.65,3.49-1.54.35.14-3.61,1.49ZM277.38,396l.39-.19c8,3,16,5.82,24.15,8.37,3.68,1.15,7.4,2.21,11.12,3.26l-.43.29C300.71,404.31,289,400.37,277.38,396Zm53.41,3.43c-11.1-2.82-24.7-7-39.13-12.14,3.91-2,9.52-4.91,18.3-9.58-6,3.16-12.64,6.33-12.36,6.21,9.79-5.6,18.45-11.11,28.28-17.51-14.33,8.13-26.31,14.36-37.47,19.69-3.64-1.33-7.32-2.71-11-4.17-4-1.58-8.07-3.27-12.1-5,.88-.4,1.71-.78,2.42-1.12,14-6.64,17.64-9,13.52-7.42-2.78,1-9.08,3.8-18.3,7.57-14.78-6.36-29.31-13.41-42.19-20.2-5.49-2.94-13.3-7.3-19.86-11.27a512.6,512.6,0,0,1-43.18-29l-.73-4.94c-.86-6.18-1.1-3.58-.4,4.09q-4.38-3.29-8.67-6.67a479.9,479.9,0,0,1-1.23-95.52c.27-3.1.66-6.19,1-9.29.93-.75,1.85-1.52,2.79-2.26a467.42,467.42,0,0,0-2.93,57.54c.2,2.77.43,8.71.83,12,.19,1.54.23-.27.29-3.58,0-10.24.78-29.13,1.3-31.47.57-3.71,1.65-20.83,3.6-37l6.72-5.21c5.81-4.46,2-2.5-6.52,3.61.47-3.74,1-7.38,1.55-10.77a533.76,533.76,0,0,1,88.54-52.9c2.54-1.2,5.13-2.31,7.69-3.47l3.4,1.23a525.82,525.82,0,0,0-52.18,27c-2.4,1.61-7.65,4.92-10.44,7-1.29,1,.36.06,3.38-1.61,9.25-5.35,26.71-14.52,29.09-15.29,3.53-1.42,18.76-9,33.89-15.65,5.81,2.18,10.74,4.08,8.35,2.85-5.32-2.82,6,1.82,15.52,6.08-7.29-3.51-13.56-6.53-21.48-10l.21-.09c8.72,3.49,11.37,4.53,14.47,5.69,3.82,1.53,8.63,3.14,26.36,12.34-5.72-3.18-12.12-6.39-11.86-6.26,10.11,4.19,19.14,8.45,29.48,13.44a526.13,526.13,0,0,0-53.95-27.12c2.71-1.13,5.35-2.19,7.86-3.14,6.51-2.51,11.82-4.47,16.31-6.09,4.22,1.73,4.89,1.83,2.46.4l-1.42-.78c5.69-2,10-3.53,13.34-4.81a290.67,290.67,0,0,1,28.54-8.74c3.46-1.05,13.48-3,20.69-4.27,10.9,26.15,18.21,53.79,22.66,82.3-5.84-4.35-11.75-8.63-17.8-12.76,3.6,3.18-6.5-3.81-22.48-13.57-4.22-1.91-7-2.9-11.92-5.23-3.36-1.59-1.83-.4,4.71,3.63s18,11,33.92,22.07q7.15,5,14.19,10.3.56,3.87,1.06,7.75l-2.26-1.7c-15.9-12.05-26.19-18.49-32.49-22.41s-8.84-5-10-5.52c-.88-.34,3.16,2.46-.58.27-16.54-9.22-7.58-3.78,9.28,7.4-5.38-3.29-10-6-14.66-8.66,8.15,5.09,15.49,10,24.21,16s22.08,15.8,27.15,20l0,0q.89,7.6,1.55,15.26c.06-4.57,1.63,7.07,2.2,25,.73,4.38,1.22,7.17,1.81,12.37.39,3.56.61,1.72.65-5.69a379.81,379.81,0,0,0-2.06-39c-.16-1.64-.41-3.3-.59-4.94,2.06,1.7,4.13,3.41,6.23,5.21.85,8.09,1.3,14,1.69,18.34.62,7.32.86,10,1.18,11.23.21.92.25-4,.54.33.85,18.77,1.45,8.4.77-11.79.53,6.28.83,11.63,1.12,17-.11-9.61-.35-18.42-1.15-29-.05-.83-.13-1.74-.2-2.63,16.68,14.52,34,31.62,48.77,50a399.66,399.66,0,0,1-50.23,48.69c.2-3.31.8-10.06,1.11-16.17-.57,5.83-1.11,11.07-1.83,16.76l-.44.36c.4-4.65.39-6.83.49-9.25,0-4.11.52-9.1,1.26-28.91-.24,6.49-.86,13.57-.82,13.28.06-10.85-.39-20.71-1-32a480.62,480.62,0,0,1-3.73,60q-9.9,7.89-20.28,15.31c.17-1,.38-2,.55-3,1-6.11,2.1-14.79,2.49-19.53,1.29-14.77,1.06-18.92.36-14.77s-2,16.61-5.18,34.74c-.26,1.47-.6,3-.87,4.45-2.17,1.54-4.31,3.11-6.5,4.62,4.16-2.33-5.59,5.08-21.48,14.88-3.6,2.9-5.86,4.78-10.26,8-3,2.19-1.25,1.42,5.46-2.4,6.37-3.61,17.17-10.16,31.86-20.41-.52,2.66-1,5.31-1.56,8-3.77,2.63-6.84,4.71-9.26,6.41-6.3,4.32-8.61,5.95-9.54,6.84-.72.66,3.7-1.83,0,.64-16.49,10.47-6.85,5.61,11-5.44-5.4,3.7-10.06,6.75-14.74,9.77,7.26-4.28,14-8.41,21.43-13.28A340.23,340.23,0,0,1,343.68,402a37.56,37.56,0,0,0-4.19-.88l1.3-.62a38.54,38.54,0,0,0-7.86-.6C332.22,399.76,331.43,399.57,330.79,399.4Zm34-63.42c6.65-4.71,13.2-9.69,19.7-14.8-.09.45-.21,1-.34,1.79-.31,1.94-.67,4.1-1.08,6.41-8,6.1-14.52,10.83-19.8,14.55C363.78,341.29,364.28,338.63,364.76,336Zm20.2-15.2.34-.27c-.07.52-.13,1-.2,1.56C385,322.06,385,321.38,385,320.79Zm3.32,4.55c.41-3.1.74-5.78,1-8l.28-.22c-.35,2.55-.75,5.24-1.2,8.14Zm32.39-31.39c-8.28,8.29-12,11.82-7.69,8.5,5.17-4.11-7.62,9-22.35,21,.28-2.81.53-5.58.69-7.72,10.46-8.53,20.65-17.5,30.3-26.92,7.33-7.11,14.9-15.21,21.54-22.93.57.73,1.15,1.46,1.71,2.19C435.5,278.95,426.82,287.78,420.67,293.95Zm25.15-36.31a312.47,312.47,0,0,0-31.25-33.17c-8.46-7.75-12.6-10.66-8.84-6.88,3.4,3.55-3.82-2.4-14-10.45-.26-2.47-.55-5-.85-7.5,10,8.1,19.62,16.62,28.82,25.52a369.8,369.8,0,0,1,27.85,30.27C447,256.16,446.42,256.91,445.82,257.64ZM185.77,65.42c2.51-4.08,5.51-8.12,8.6-12.26,9-11.89,19.8-22.92,32.89-30.65-1.22.54-.65-.26-4,1.86a115.82,115.82,0,0,0-26.88,23.17A118.86,118.86,0,0,1,211.76,31a85.13,85.13,0,0,1,14-9.81l5.06-2.75c2.24-1,4.69-2.24,7-3a68.74,68.74,0,0,1,20.81-4.58,67.52,67.52,0,0,1,23.51,2.78c15,4.59,26,13.46,30.39,16.91a99.68,99.68,0,0,1,9.74,9c11.55,12.36,20.75,26.64,28.34,41.6l-3.1.52A191.79,191.79,0,0,0,324.46,46.9a115.08,115.08,0,0,0-22.38-20.48c-8.55-5.76-18.31-10.56-29.12-12.28a62.47,62.47,0,0,0-27.53,1.52C232.6,19.37,221.21,26.4,209.26,38c1.11-1.63.1-1-3.79,2.82a137.78,137.78,0,0,0-18.59,23.77c-3.4,5.3-6.46,10.79-9.34,16.36l-.47-.09C179.79,75.62,182.64,70.45,185.77,65.42Zm-9.51,17,.46.09c-2.76,5.44-5.3,11-7.66,16.58l-.53-.09Q172.1,90.56,176.26,82.4ZM88.8,105.51c15.49-4.35,32.3-5.36,49-4.7,5.45.27,10.91.77,16.36,1.37l-.08.21c-4-.42-8-.78-12-1a177.32,177.32,0,0,0-45.27,2.67c-4.92,1-8.51,1.82-12.61,3ZM19.72,200.27a32.74,32.74,0,0,0,1.72,4.37A37.3,37.3,0,0,0,23,208.07a26.87,26.87,0,0,1-1.48-2.53v.1a25,25,0,0,0,1.92,3.45A16.75,16.75,0,0,1,19.72,200.27Zm15.19,20.26a34.49,34.49,0,0,0,6.4.45l2,.16-.28.31a25.38,25.38,0,0,0,4.52-.46c-1.63,0-2.52-.06-2.72-.05-.09-.25-.26-.42-.2-.61.17-.52-.78-1,2.18-1.58a12,12,0,0,0,3.27-1.11c.33-.39.93-.45,2.24-1a10.38,10.38,0,0,0,3.15-1.78c.41-.48-.2-.45-.4-.7l.82-.64a18.94,18.94,0,0,1-4.17,2l-.22.47a23.42,23.42,0,0,1-5.86.87,23.35,23.35,0,0,1-6.2-.4,7.57,7.57,0,0,0,.93,0,23.39,23.39,0,0,1-2.69-.85,3.48,3.48,0,0,0-.71-1.07,13.69,13.69,0,0,0-1.74-1.06,18.46,18.46,0,0,1-8-7.7c-.53-.75-.87-1.73-1.29-2.39a19.76,19.76,0,0,1-1.51-12.7,22.05,22.05,0,0,1,8.66-13.41c1.57-1.29,4.33-2.33,3.61-2.71-.39-.16.29-.62,3-1.15L41.8,173a22.56,22.56,0,0,1,15.1,3.53A17.27,17.27,0,0,1,58.66,178l-.32-.12a22.58,22.58,0,0,1,8.22,12.8c.37-.66,1,.69,1.23,2.94a9.9,9.9,0,0,1,1.69,1.53c.59,1,1.29-1.07,0-6.09a26.25,26.25,0,0,0-4.29-8.73,21.73,21.73,0,0,0-4.3-4.44,27.57,27.57,0,0,0-15-5.16,19.34,19.34,0,0,0-3.64.19,24,24,0,0,0-5.39,1.48c.29-.79-1-.9-4.56,1a26.27,26.27,0,0,0-4.88,3.65,25.13,25.13,0,0,0-8.12,17.56s-.07.06-.11.1v-1A25.48,25.48,0,0,1,32,173.11a19.92,19.92,0,0,1,1.88-.78,26.79,26.79,0,0,1,5.79-1.89c-.21-.15-.14-.4-.7-.43a23.8,23.8,0,0,0-5.15.25c3-1.6,3.08-1.51,5.41-1.6a17.09,17.09,0,0,0,1.87-.16,48.46,48.46,0,0,1,11.26.13,5.74,5.74,0,0,1,1.92.33,27.08,27.08,0,0,1,8.57,5c4.51,3.89,7.08,7.84,7,6-.19-1.27,2.88,1.42,4.07,4.69,2.14,6.13,2.28,7.63,2.9,8,.19.14.36-.71.53,0,.66,3.21,1.19,1.45,1-2.2a21.53,21.53,0,0,1,.75,3,27.62,27.62,0,0,0-.33-5.28,45.56,45.56,0,0,0-1.79-5.93c-1.55-5.24-5.63-10.86-10.59-14.68a32.87,32.87,0,0,0-11.16-5.7c.33-.27,1.71-.18,1.61-.56s-1.66-1.54-7.74-2.5l1.3-.62a34.23,34.23,0,0,0-4.29-.51,53.06,53.06,0,0,1,.54-5.9,45.17,45.17,0,0,1,16.34-29.11c13.45-11.23,33-16.09,52.61-17.57a211,211,0,0,1,37.19.84c-2.45,6.43-4.49,12.29-6,16.78a361.71,361.71,0,0,0-13.7,56.1c-.11.64-.18,1.29-.28,1.93a452.42,452.42,0,0,0-45.43,40.38c-4.12,4.19-8.08,8.52-12,12.92-2.23-3.14-4.34-6.33-6.39-9.54.74-.65,1.54-1.21,2.22-1.92l1.72-1.8c3.82-3.73,4-5.61,5.43-8.57a3.36,3.36,0,0,0,.36-2.22c-.05-.32-.68.53-.62,0,.13-1.32.88-5,.24-4.23-.74.93-.31-1.31-.15-3.19a36,36,0,0,1-1.95,5.34c.9-2.78.64-3.44.56-4.2a24.21,24.21,0,0,1,.24-5l-.46,2.24a31.81,31.81,0,0,0-1.6-5.44,29.88,29.88,0,0,1-1.87,10.43c-.26-.1-.29-1-.84-.14-1.36,2.29-3.57,6.8-6.11,9.51a16.43,16.43,0,0,1-5.1,4.13c-1.37.57-2.84,1.44-5,2.4a29.13,29.13,0,0,1-3.32,1.16l0-.14a28.49,28.49,0,0,0,9.16-5,33.59,33.59,0,0,1-5.63,3.29,27.59,27.59,0,0,1-15.15,2.3C37,222.91,32.53,220.16,34.92,220.52Zm18.65,8,.85-.39A34.36,34.36,0,0,0,70,218.53l-.11.42c-.7.75-1.49,1.4-2.24,2.08a37.76,37.76,0,0,1-3.95,3.2,32.07,32.07,0,0,1-7.65,3.85A8.44,8.44,0,0,1,53.57,228.49ZM49,239.34c-1.29-2-2.53-4-3.76-6.09,1.13,0,2.27,0,3.34-.11a36,36,0,0,0,4.51-.77q5.06,8.06,10.54,15.62c-1.54,1.94-3.07,3.87-4.57,5.85C55.6,249.14,52.23,244.31,49,239.34ZM38.76,388.47a64.43,64.43,0,0,1-9.61-26.41,85.55,85.55,0,0,1,.25-22.51,110.8,110.8,0,0,1,4.68-18.91c3.61-10.09,5.91-14.49,3.12-6.54-4.13,11.81-8.35,30.23-5.75,47,.32,2.13,1.62,10.21,3.86,15.16l-1-1.8c4.28,11.13,9.84,19.44,20.52,27.89-9.7-8.05-13.08-14.45-14-15.69-.16-.71-.75-1.95-.29-1.58.65.53,0-1,.87-.07,1,.77,2.69,4.87,11.85,13.09a74.72,74.72,0,0,0,14.1,9.38,66.06,66.06,0,0,0,10.48,4.42,162,162,0,0,0,19.92,5.19c11,2.21,26.83,2.63,30.88,2.4,5.13-.25.5-.44-.05-.81,1.28,0,4.39-.08,9.22-.29-17.92.51-29.83-.64-41.3-2.83l-3.2-.35C75.12,411,59.48,403.32,48.71,390.57S32.94,360,35.87,339.79c-.33,3.92-.46,5.72-.52,7.92a98.74,98.74,0,0,1,4.72-24.52c1.17-2.95,1.75-3.92,3.81-8.65.9-2.55,5.85-12.86,8-17.08A223.47,223.47,0,0,1,69.19,270c1.65,2.06,3.22,4,4.69,5.75-2.12,3-4.29,5.93-6.27,9C55.75,303.15,46,323.38,43.78,343.59c-.88,8.41-.41,14.75.58,19.22a34.28,34.28,0,0,0,2.81,8.77A43.26,43.26,0,0,0,60.27,387.4c.75.58-3.19-3.37-5.73-7.3-6.62-9.64-9.39-22.62-7.55-36.9s7.31-29.14,14.65-42.72c5.66-10.48,9.66-16.1,10.85-18.13s-.06-.35-3.44,4.38c-1.94,2.87-.6.37-.76.31,2-3.1,4.4-6.63,6.74-9.94,1.19,1.42,2.34,2.77,3.49,4.11a440.22,440.22,0,0,0,54.38,49,410.89,410.89,0,0,0,12.23,54.72c2.15,7.1,4.59,14.11,7.21,21.05a215.13,215.13,0,0,1-27.05,1.22,150,150,0,0,1-31.7-3.83c-1.16-.17-2.26-.44-3.37-.72,15.56,4.64,32.89,6,50.24,5.39,4.11-.14,8.24-.41,12.36-.76q3.34,8.72,7.23,17.26c-5.45.62-10.06,1-13.7,1.14a238.52,238.52,0,0,1-37.79-.77,134.4,134.4,0,0,1-24.13-4.68v-.15c24,6.72,48.82,6.57,72.85,3.84a241.92,241.92,0,0,1-45.73.79c-18.12-1.77-36.73-6-52.69-16.33A67.14,67.14,0,0,1,38.76,388.47Zm104.61,42.9c-16.7,1.07-34.08.43-50.73-3a114.25,114.25,0,0,1-14.76-4.31c1.83.55,3.69,1,5.51,1.49,18.35,5.24,37,6.35,55.26,5.75,7.93-.34,15.81-1.07,23.63-2l.1.2C156.1,430.31,149.8,431,143.37,431.38Zm178.55,41.91.19.06a106.14,106.14,0,0,1-7.84,7.64l-.13-.07c2.7-2.44,5.18-5.05,7.63-7.68Zm3.37,5.37a94.37,94.37,0,0,1-11.15,9.77c1.45-1.16,2.77-2.44,4.08-3.7a126,126,0,0,0,9.76-9.84l.57.1C327.49,476.23,326.44,477.49,325.29,478.66Zm-3.7-5.51c-8.59,9.08-18.53,17-30.1,22.5a67.39,67.39,0,0,1-52.89,2.3c-13.47-4.81-26.11-15.16-33-22.7s-9.58-11.6-4.16-5.59c8.22,8.81,22.11,20.47,37.49,25.81,1.94.71,9.35,3.3,14.54,3.75l-2,0c11.31,1.58,20.83,1.08,33.1-3.42a62.82,62.82,0,0,1-19.81,3.72c-.66-.22-2-.34-1.45-.54.75-.29-.85-.48.36-.79,1.15-.48,5.31,0,16.64-3.34a75.67,75.67,0,0,0,14.79-6.77,64.82,64.82,0,0,0,9-6.21c2.15-2.09,5.78-4.6,12.22-11.21A38,38,0,0,0,321.59,473.15ZM311.87,447a37.37,37.37,0,0,0,1.54,3.44,27,27,0,0,1-1.48-2.53v.1a25,25,0,0,0,1.92,3.45,16.75,16.75,0,0,1-3.69-8.83A32.72,32.72,0,0,0,311.87,447Zm3.45,23.1-.68.89c-12.77,12.61-27.05,21.16-42.87,23.75s-33-1.32-48.95-12.72c3.21,2,4.61,3,6.51,3.94a98.21,98.21,0,0,1-18.77-14.87L205,464c-1.75-1.91-8.33-10.67-10.86-14.48a195,195,0,0,1-11.75-19.63l7.24-1.5c.35.66.65,1.36,1,2,10.13,18.41,23,35.44,39.15,46.34,13.6,8.91,22.14,9.64,25.35,9.84a45.75,45.75,0,0,0,19.73-3.3c.43-.17-.67,0-2.44.41-1.79.22-4.23.65-6.52.72-11.39.84-23.66-2.89-34.95-10.68s-21.38-19.06-29.61-31.25c-4.48-6.79-7.23-11.7-8.88-14.67l2.46-.51c27.43-6,35-9.73,51.67-15.63A79.81,79.81,0,0,0,257.16,407c1.34-.71-3.95,1.08-1.44-.05,2.32-1,6.35-2.82,10.26-4.63l1,.39a281,281,0,0,0,32.17,11l5.41,1.41a31.83,31.83,0,0,0-4.85,7.69A32.55,32.55,0,0,0,297,435c0,1.25-.11,3,0,4.56a36.5,36.5,0,0,0,18.35,30.52Zm41.46-60.21a32.87,32.87,0,0,0-11.16-5.7,2.1,2.1,0,0,1,.81-.21,30.93,30.93,0,0,1,14.21,9.33c.41.47.74,1,1.12,1.48A32.73,32.73,0,0,0,356.78,409.9Zm125.77-98.75a117.11,117.11,0,0,1,8.32,30.12c1.26,10.53.92,21.71-2.8,32.3a60.46,60.46,0,0,1-15.33,23.79c-10.07,9.39-22.43,15.77-39.26,20,1.88-.81.62-.76-4.87.34a195.57,195.57,0,0,1-31,2.83,229.8,229.8,0,0,1-30.55-1.69l.22-.55a257.69,257.69,0,0,0,29,1.78c4.93,0,10.08-.1,15.37-.51,15.27-1.34,30.66-4.66,44.37-11.62a22,22,0,0,0-4.26,1.37A117.56,117.56,0,0,1,417.13,417,136.85,136.85,0,0,0,439,412.28a115.48,115.48,0,0,0,15.68-5.71l4.9-2.63c2-1.18,4.18-2.71,6.1-4a59.61,59.61,0,0,0,13.87-14.69,56.32,56.32,0,0,0,8.24-20.73c2.75-14.62-.55-28.06-1.9-33.31-.75-3-2.34-7.8-3.91-12.34-6.45-18-16.37-34.93-27.91-50.58.61-.72,1.23-1.43,1.83-2.16C466.27,279.86,475.57,294.65,482.54,311.15Zm10.51-128.64a100,100,0,0,1-3.56,13.3c-7.86,22.1-20.47,42.24-34.81,60.37-.43.55-.86,1.05-1.28,1.59l-1.77-2.21c.54-.69,1.1-1.39,1.6-2.06,12.06-15.77,22.84-32.86,30.67-52.06A120.44,120.44,0,0,0,492,170.9c1.19-10.67.79-22-3-32.75a59.91,59.91,0,0,0-15.78-24,75.5,75.5,0,0,0-21-13.37c0,.64,0,1.29-.09,1.93l.21.09.11.05-.22,1.09a32.27,32.27,0,0,0-1.59-5.51,30.29,30.29,0,0,1-1.89,10.58c-.26-.1-.29-1-.84-.13-1.38,2.32-3.62,6.91-6.19,9.65a16.77,16.77,0,0,1-5.17,4.2c-1.39.58-2.88,1.47-5,2.44a29.73,29.73,0,0,1-3.38,1.17l0-.14a28.9,28.9,0,0,0,9.3-5.06,33.88,33.88,0,0,1-5.71,3.34,28,28,0,0,1-15.39,2.33c-4.18-.48-8.72-3.27-6.29-2.89a34.78,34.78,0,0,0,6.5.47l2.05.16-.28.31a25.75,25.75,0,0,0,4.6-.46c-1.65,0-2.56-.06-2.77,0-.09-.25-.27-.42-.2-.61.18-.52-.8-1,2.22-1.58,1.22-.32,3.1-.8,3.34-1.12s1-.45,2.29-1a10.7,10.7,0,0,0,3.22-1.81c.42-.49-.2-.45-.4-.7l.83-.65a19.31,19.31,0,0,1-4.25,2l-.22.47a29.24,29.24,0,0,1-12.3.48,7.75,7.75,0,0,0,.95,0,23.85,23.85,0,0,1-2.74-.86,3.54,3.54,0,0,0-.73-1.08,14.61,14.61,0,0,0-1.77-1.08,18.88,18.88,0,0,1-8.15-7.86c-.54-.77-.89-1.76-1.32-2.44a20.2,20.2,0,0,1-1.53-13,22.49,22.49,0,0,1,8.85-13.67c1.61-1.32,4.42-2.37,3.69-2.75-.39-.16.3-.63,3-1.17l2.1-.35a23,23,0,0,1,15.39,3.6,17.54,17.54,0,0,1,1.8,1.54l-.33-.13a23,23,0,0,1,8.37,13.05c.37-.67,1,.71,1.24,3a10,10,0,0,1,1.69,1.56c.59,1,1.3-1.09,0-6.2a26.69,26.69,0,0,0-4.36-8.87,22.16,22.16,0,0,0-4.37-4.52,28,28,0,0,0-15.21-5.26,19.57,19.57,0,0,0-3.7.19,24.43,24.43,0,0,0-5.49,1.5c.3-.79-1-.9-4.63,1a26.71,26.71,0,0,0-5,3.71,25.57,25.57,0,0,0-8.26,17.87s-.07.06-.11.1v-1a25.91,25.91,0,0,1,12.95-21,19.92,19.92,0,0,1,1.91-.8,27.34,27.34,0,0,1,5.88-1.92c-.22-.15-.14-.4-.71-.43a24.15,24.15,0,0,0-5.23.27c3.05-1.62,3.12-1.53,5.5-1.63a17.63,17.63,0,0,0,1.9-.16,48.58,48.58,0,0,1,11.44.15,5.88,5.88,0,0,1,1.95.34,27.52,27.52,0,0,1,8.7,5c4.58,4,7.18,8,7,6.14-.2-1.29,2.9,1.45,4.11,4.76,1.5,4.3,2,6.33,2.41,7.3.09.88.28,1.74.32,2.62,1.54.72,3.24,1.54,5.19,2.52l5.2,3c2.17,1.32,4.5,3,6.57,4.43a68.51,68.51,0,0,1,15.28,16.13,64,64,0,0,1,9.43,22.81C497.21,162.39,494.06,176.79,493.05,182.51Zm-72.28-72.83a7.61,7.61,0,0,1-1.62,2.17c-.31.32-1.06.36-2.38,0a14.27,14.27,0,0,1-7.86-5.35c-1.86-2.43-1.44-5.39-.53-4.51a1.78,1.78,0,0,1,.38.5A11.49,11.49,0,0,0,411.6,106a5.06,5.06,0,0,0,.64,1.47,5.88,5.88,0,0,0,1.25.93c.08-.13.33-.2.21-.41-.38-.7-.1-.73,1.11,0a22.78,22.78,0,0,0,5.25,1.37C420.4,109.37,420.83,109.56,420.77,109.68ZM407,87.31a6.26,6.26,0,0,0-.8,2.62,6.49,6.49,0,0,1-.93,2.56c-.81,1.44-.92,3.8-1.68,4.15-.35.16-.8,1.86-1,2.85-.09.32-.25.5-.37.37a7.59,7.59,0,0,1-.69-1.14,18.83,18.83,0,0,1,2-9.64,13.18,13.18,0,0,1,4-5.16,27.94,27.94,0,0,1,4.87-3l1.71.53c.52.13,1.14.38,1.74.58-2.28.52-4.69,2-7.15,3.47A7,7,0,0,0,407,87.31Zm25.08,14.85a5.25,5.25,0,0,1-.3,1.37,13.45,13.45,0,0,1-2.31,3.26,3.63,3.63,0,0,0-.06-.62,1.72,1.72,0,0,1-.2.39,11.32,11.32,0,0,1-6.36,2.08,1.55,1.55,0,0,0,.14-.24c.6-.2,1.16-.49,1.73-.72,2.14-1.08,3.65-3.08,5-5C430.89,100.89,432,100,432.12,102.16ZM45.48,206.2a7.49,7.49,0,0,1-1.56,2.17c-.3.32-1,.36-2.31,0A13.85,13.85,0,0,1,34,203.22c-1.81-2.36-1.37-5.23-.47-4.38a1.67,1.67,0,0,1,.37.48,11.07,11.07,0,0,0,2.77,3.31,4.79,4.79,0,0,0,.6,1.43,5.52,5.52,0,0,0,1.2.9c.08-.13.33-.21.21-.41-.36-.69-.08-.72,1.07,0a23,23,0,0,0,5,1.32C45.12,205.89,45.53,206.08,45.48,206.2ZM32.12,184.55a6,6,0,0,0-.76,2.57,6.09,6.09,0,0,1-.9,2.5c-.79,1.4-.89,3.7-1.65,4-.35.15-.8,1.81-1,2.78-.09.31-.25.49-.37.36a7.34,7.34,0,0,1-.69-1.12,18.4,18.4,0,0,1,2-9.42,12.8,12.8,0,0,1,3.9-5,27.54,27.54,0,0,1,4.75-2.95l1.67.54c.51.14,1.12.38,1.7.59-2.22.51-4.56,2-7,3.38A6.7,6.7,0,0,0,32.12,184.55Zm24,15.77a13,13,0,0,1-2.24,3.15,3.56,3.56,0,0,0-.07-.61,1.62,1.62,0,0,1-.2.38,10.87,10.87,0,0,1-6.16,2,1.56,1.56,0,0,0,.14-.23c.57-.19,1.11-.47,1.66-.69,2-1,3.49-3,4.8-4.77,1.1-1.75,2.25-2.62,2.36-.51A4.93,4.93,0,0,1,56.17,200.32ZM324.42,445.6c-1.81-2.36-1.37-5.23-.47-4.38a1.67,1.67,0,0,1,.37.48,11.06,11.06,0,0,0,2.77,3.31,4.8,4.8,0,0,0,.6,1.43,5.55,5.55,0,0,0,1.2.9c.08-.13.33-.21.21-.41-.36-.69-.08-.72,1.07,0a23,23,0,0,0,5,1.32c.33.07.74.26.69.38a7.48,7.48,0,0,1-1.56,2.17c-.3.32-1,.36-2.31,0A13.85,13.85,0,0,1,324.42,445.6Zm-.22-20.46a6.69,6.69,0,0,0-1.66,1.79,6,6,0,0,0-.76,2.57,6.1,6.1,0,0,1-.9,2.5c-.79,1.4-.89,3.7-1.65,4-.35.15-.8,1.81-1,2.78-.09.31-.25.49-.37.36a7.34,7.34,0,0,1-.69-1.12,18.4,18.4,0,0,1,2-9.42,12.81,12.81,0,0,1,3.9-5,27.54,27.54,0,0,1,4.75-2.95l1.68.54c.51.14,1.12.38,1.7.59C328.95,422.27,326.61,423.72,324.2,425.14Zm22.68,16.23a5,5,0,0,1-.28,1.33,13,13,0,0,1-2.24,3.15,3.56,3.56,0,0,0-.07-.61,1.63,1.63,0,0,1-.19.38,10.87,10.87,0,0,1-6.16,2,1.55,1.55,0,0,0,.14-.23c.57-.19,1.11-.47,1.66-.69,2-1,3.49-3,4.8-4.77C345.62,440.13,346.77,439.26,346.88,441.37Z"/></svg>