<svg id="Layer_1" data-name="Layer 1" xmlns="http://www.w3.org/2000/svg" viewBox="0 0 512 512"><defs><style>.cls-1{fill:#e9eef4;}.cls-2{fill:#141f38;}.cls-3{fill:#dd2c6c;}.cls-4{fill:#44bc4f;}.cls-5{fill:#38bfd6;}</style></defs><title>agar-plate-filled</title><path class="cls-1" d="M256,499.2C121.9,499.2,12.8,390.1,12.8,256S121.9,12.8,256,12.8,499.2,121.9,499.2,256,390.1,499.2,256,499.2Z"/><path class="cls-2" d="M256,25.6C383,25.6,486.4,129,486.4,256S383,486.4,256,486.4,25.6,383,25.6,256,129,25.6,256,25.6M256,0C114.62,0,0,114.61,0,256S114.62,512,256,512,512,397.39,512,256,397.38,0,256,0Z"/><path class="cls-1" d="M256,448C150.13,448,64,361.87,64,256S150.13,64,256,64s192,86.13,192,192S361.87,448,256,448Z"/><path class="cls-2" d="M256,76.8c98.81,0,179.2,80.39,179.2,179.2S354.81,435.2,256,435.2,76.8,354.81,76.8,256,157.19,76.8,256,76.8m0-25.6C142.89,51.2,51.2,142.89,51.2,256S142.89,460.8,256,460.8,460.8,369.11,460.8,256,369.11,51.2,256,51.2Z"/><path class="cls-3" d="M170.07,236.64a25.61,25.61,0,0,1-9.52-49.37l47.54-19a25.6,25.6,0,0,1,19,47.53l-47.54,19A25.48,25.48,0,0,1,170.07,236.64Z"/><path class="cls-2" d="M217.58,179.2h0a12.81,12.81,0,0,1,4.76,24.69l-47.54,19a12.8,12.8,0,1,1-9.51-23.77l47.54-19a12.72,12.72,0,0,1,4.74-.93m0-25.6a38.28,38.28,0,0,0-14.25,2.76l-47.54,19a38.4,38.4,0,1,0,28.52,71.31l47.54-19a38.41,38.41,0,0,0-14.27-74.06Z"/><path class="cls-4" d="M256,368.84a25.44,25.44,0,0,1-18-7.41l-36.41-36a25.6,25.6,0,1,1,36-36.38l36.41,36a25.59,25.59,0,0,1-18,43.78Z"/><path class="cls-2" d="M219.6,294.4a12.71,12.71,0,0,1,9,3.7l36.41,36a12.79,12.79,0,1,1-18,18.18l-36.41-36a12.79,12.79,0,0,1,9-21.89m0-25.6a38.39,38.39,0,0,0-27,65.68l36.41,36A38.39,38.39,0,1,0,283,316L246.6,279.91a38.26,38.26,0,0,0-27-11.11Z"/><path class="cls-5" d="M355.75,262.85a25.33,25.33,0,0,1-5.54,10c-7.33,8-17.15,10.29-26.11,7.75h0a25.83,25.83,0,0,1-17.52-32.1l14.45-49a25.57,25.57,0,0,1,31.53-17.39l.24.07a26,26,0,0,1,17.28,32.08Z"/><path class="cls-2" d="M345.56,194h0a12.85,12.85,0,0,1,3.54.5h0a13,13,0,0,1,8.72,16.1l-14.47,49a12.76,12.76,0,0,1-15.8,8.68h0a13,13,0,0,1-8.71-16.1l14.47-49A12.87,12.87,0,0,1,345.56,194m0-25.6a38.42,38.42,0,0,0-36.81,27.54l-14.52,49.18a38.4,38.4,0,0,0,25.93,47.69h0a38.36,38.36,0,0,0,47.73-26l14.52-49.18A38.4,38.4,0,0,0,356.49,170h0a38.44,38.44,0,0,0-10.91-1.59Z"/><circle class="cls-2" cx="268.8" cy="128" r="12.8"/><circle class="cls-2" cx="358.4" cy="345.6" r="12.8"/><circle class="cls-2" cx="128" cy="294.4" r="12.8"/></svg>