<svg id="Layer_1" data-name="Layer 1" xmlns="http://www.w3.org/2000/svg" viewBox="0 0 512 512"><title>check_mark</title><path d="M4.82,243.35S-7,246.23,6.49,236.43l8.86-9.27L18.5,218l8.91-5c-.15.11,4.18,1.45,24.21,16.38C71.18,244.39,100,276.6,145.35,337.65c.18-.19,36.41,48.07,74.83,116.43,0,0,6,6.55,13.67,20,3.84,6.75,8.23,10.25,13.67,19.54l2.08,3.54.27.45.07.12c-24.48.08,62.8,3.06-46.94,3.33l.14-.22.51-.9,1.06-1.83c1.41-2.44,2.87-4.93,4.37-7.52,3-5.12,5.95-10.68,9.14-16.4,25.22-46,53-110.63,83.93-176.69s67.51-133.08,107.09-182.74c39-50,80-81.13,91-87.61a436.31,436.31,0,0,0-48.1,41.59c-26.91,26.26-57.17,64.22-82.28,104.3-50.33,80.32-86,166-89.85,176.07.69.24,33.45-76.46,79.66-154,23.14-38.71,51.42-76.89,77.91-105.2s50.72-46.56,57.35-50.55a454.55,454.55,0,0,0-42.75,38.94c-23.9,24.55-51.71,59.67-74.8,97.18-46.64,75-79.83,156.58-82.69,170.39.5.19,30.53-68.17,72.05-138.26,20.76-35,45.66-69.91,69.27-96.6S481.54,66,490.31,60.19c-1-.68-46.62,42.67-54.56,56.44,6.32-7.16,13.23-14,20-20.88C445.63,107.21,436,118.93,427.1,131c-5.69,6.72-11.14,13.55-16.45,20.47-1.09-.59,46.19-54.74,52.93-56.54,0,0,4.8-6.38-1.09-.73-5.49,5.76-23.8,22.91-57.11,75.38,0-.19-44.94,60.51-93.6,175.63-12.57,28.62-25.85,60.46-41.18,95-8.54,19.24-15.48,34.31-25.19,53.57-2.24,4.63-4.77,9.22-7.18,13.9l-1.83,3.52-.23.42-.11.22c-4.91.1,10.84.15-11,.24l-.55-.84-1.1-1.7-4.43-6.85c-5.91-9.16-11.82-18.5-17.87-28-24.15-37.85-50-78-81.1-118.35C88.82,316.43,52.4,274.8,4.82,243.35Z" fill="#231f20"/><path d="M205.79,337.35s5.66,15.55-8.19,6l-12-6.85-10.2-3.87-7.51-6c-1-.62,5.84-4.11,49.6-60.24a475.33,475.33,0,0,1,38.71-55c.79,1.16,43-58.42,109-109.56C429.53,51.55,499,5.92,509.32,0c.23.15-39.35,27.45-81.22,56.16-42,28.47-83,61.4-86,66.54-.35-.3,36.49-29.89,77.18-57.3s82.85-54.79,90.25-57.72c1.09-.08-151.11,101.68-155,118.53-.27-.2,32.47-26,69.66-50.7s77.19-49.89,87.8-54c0,0-27.42,17.38-33.63,22.86l13.46-7.56-19.34,14L460.23,58s33.64-19.27,37.57-19.46c0,0,11.41-11.73-41.74,28.79.4.26-36.29,20.35-87.37,64.83C342.94,154.27,318,184.63,293.3,221,268,257.3,244.79,291.94,205.79,337.35Z" fill="#231f20"/><path d="M12.92,242s-9.21,4.87,4.8-4.54l10.84-7.85L36,223.42l8.42-5.3c.16,0,3.83.21,33.28,15.66a101.81,101.81,0,0,1,28.22,14.14c-.86,0,99.87,74.24,102.6,79.9,1,2.14-58.09-47.36-63.7-48.67-.24.15,56.32,46.74,57.46,52-.11,1.14-54.54-44.54-64.76-44.26-.13.15,49.4,42.44,52.21,50.76-.07,0-9.18-8.65-12.64-10l3.6,4.61-8-5.5-3.53-4.1s9.29,11.34,8.55,13.42c.08,0,7.8,2.09-16-12.47C161.18,322.82,120.75,279,12.92,242Z" fill="#231f20"/></svg>