<svg id="Layer_1" data-name="Layer 1" xmlns="http://www.w3.org/2000/svg" viewBox="0 0 512 512"><defs><style>.cls-1{fill:#ffb85a;}.cls-2{fill:#d39046;}.cls-3{opacity:0.15;}</style></defs><title>leaf-flat</title><path class="cls-1" d="M510.38,208.16a12.8,12.8,0,0,0-11.18-6.56H430.3l4.82-43.39a12.8,12.8,0,0,0-20.72-11.41l-65.88,52.71L377.18,89.63a12.8,12.8,0,0,0-16.06-15.49L307.43,90.25l-40-80a12.8,12.8,0,0,0-22.9,0l-40,80L150.88,74.14a12.8,12.8,0,0,0-16.06,15.49l28.66,109.88L97.6,146.81a12.8,12.8,0,0,0-20.72,11.41L81.7,201.6H12.8A12.8,12.8,0,0,0,1.9,221.11L47.8,295.7,10.15,333.35A12.8,12.8,0,0,0,16.84,355L102,371,65.53,438.73a12.8,12.8,0,0,0,14.78,18.38L256,406.91l175.68,50.19a12.8,12.8,0,0,0,14.78-18.38L410,371l85.18-16a12.8,12.8,0,0,0,6.69-21.63L464.2,295.7l45.9-74.59A12.81,12.81,0,0,0,510.38,208.16Z"/><path class="cls-2" d="M389.4,286.23a12.8,12.8,0,0,0-16.76-6.83L268.8,323.12V213.3l28.25-28.25a12.8,12.8,0,0,0-18.1-18.1L268.8,177.1V144a12.8,12.8,0,1,0-25.6,0v33.1l-10.15-10.15a12.8,12.8,0,0,0-18.1,18.1L243.2,213.3V323.12L139.37,279.4A12.8,12.8,0,0,0,129.43,303L243.2,350.9V496a12.8,12.8,0,1,0,25.6,0V350.9L382.57,303A12.8,12.8,0,0,0,389.4,286.23Z"/><g class="cls-3"><path d="M431.68,457.11a12.8,12.8,0,0,0,14.78-18.38L410,371l85.18-16a12.8,12.8,0,0,0,6.69-21.63L464.2,295.7l45.9-74.59a12.8,12.8,0,0,0-10.9-19.51H430.3l4.82-43.39a12.8,12.8,0,0,0-20.72-11.41l-65.88,52.71L377.18,89.63a12.8,12.8,0,0,0-16.06-15.49L307.43,90.25l-40-80A12.81,12.81,0,0,0,256,3.2V406.91Z"/></g></svg>